<?xml version="1.0" ?><svg data-name="Layer 1" id="Layer_1" viewBox="0 0 64 64" xmlns="http://www.w3.org/2000/svg"><defs><style>.cls-1{fill:#7c4c2b;}.cls-2{fill:#eaeaea;}.cls-3{fill:#fff;}.cls-4{fill:#b3bec6;}.cls-5{fill:#5885c4;}.cls-6{fill:#ef5f58;}.cls-7{fill:#f1b924;}.cls-8{fill:#394757;}.cls-9{fill:#638a92;}.cls-10{fill:#eb7a25;}.cls-11{fill:#010101;}.cls-12{fill:#f1f1f1;}.cls-13{fill:#ccc;}.cls-14{fill:#cdd7de;}</style></defs><title/><rect class="cls-1" height="52" rx="4" ry="4" width="44" x="5.98" y="10"/><path class="cls-2" d="M45,14H11a1,1,0,0,0-1,1V50l8,8H46V15A1,1,0,0,0,45,14Z"/><path class="cls-3" d="M17,50H10l8,8V51A1,1,0,0,0,17,50Z"/><rect class="cls-4" height="2" width="16" x="17.98" y="45"/><rect class="cls-4" height="2" width="16" x="17.98" y="49"/><circle class="cls-5" cx="23.98" cy="29" r="8"/><path class="cls-6" d="M24,21V37a8,8,0,0,0,0-16Z"/><circle class="cls-5" cx="18.48" cy="40.5" r="1.5"/><circle class="cls-6" cx="23.98" cy="40.5" r="1.5"/><circle class="cls-5" cx="29.48" cy="40.5" r="1.5"/><path class="cls-7" d="M29.64,34.66,24,29l-5.66,5.66A8,8,0,0,0,29.64,34.66Z"/><path class="cls-8" d="M55,62H31a3,3,0,0,1-3-3V27a3,3,0,0,1,3-3H55a3,3,0,0,1,3,3V59A3,3,0,0,1,55,62Z"/><rect class="cls-4" height="6" rx="1" ry="1" width="22" x="31.98" y="28"/><rect class="cls-9" height="10" rx="1" ry="1" width="10" x="31.98" y="36"/><rect class="cls-9" height="10" rx="1" ry="1" width="10" x="43.98" y="36"/><rect class="cls-9" height="10" rx="1" ry="1" width="10" x="31.98" y="48"/><rect class="cls-10" height="10" rx="1" ry="1" width="10" x="43.98" y="48"/><rect class="cls-11" height="2" width="2" x="49.98" y="30"/><rect class="cls-11" height="2" width="2" x="45.98" y="30"/><rect class="cls-11" height="2" width="2" x="41.98" y="30"/><rect class="cls-3" height="6" width="2" x="35.98" y="38"/><rect class="cls-3" height="2" width="6" x="33.98" y="40"/><rect class="cls-3" height="2" transform="translate(-26.65 41.67) rotate(-45)" width="7.07" x="33.44" y="52"/><rect class="cls-3" height="7.07" transform="translate(-26.65 41.67) rotate(-45)" width="2" x="35.98" y="49.46"/><rect class="cls-3" height="2" width="6" x="45.98" y="40"/><rect class="cls-3" height="2" width="6" x="45.98" y="50"/><rect class="cls-3" height="2" width="6" x="45.98" y="54"/><rect class="cls-12" height="2.05" width="2" x="47.98" y="37"/><rect class="cls-12" height="2.05" width="2" x="47.98" y="43"/><polygon class="cls-13" points="17.98 51 17.98 58 24.98 58 17.98 51"/><path class="cls-14" d="M37,8h-.13a3.67,3.67,0,0,1-3.34-2.34,6,6,0,0,0-11.06,0A3.67,3.67,0,0,1,19.11,8H19a4,4,0,0,0-4,4v6H41V12A4,4,0,0,0,37,8Z"/><circle class="cls-3" cx="27.98" cy="8" r="2"/><rect class="cls-4" height="2" width="26" x="14.98" y="16"/></svg>