<?xml version="1.0" ?><svg viewBox="0 0 64 64" xmlns="http://www.w3.org/2000/svg"><defs><style>.cls-1{fill:#235087;}.cls-2{fill:#4db5ff;}.cls-3{fill:#b7e5ff;}.cls-4{fill:#ef2648;}.cls-5{fill:#ffa511;}.cls-6{fill:#ffdc13;}.cls-7{fill:#6b778a;}.cls-8{fill:#96d0ea;}.cls-9{fill:#163768;}.cls-10{fill:#b20d24;}.cls-11{fill:#f08015;}.cls-12{fill:#4d97ff;}</style></defs><title/><g data-name="Filled Outline" id="Filled_Outline"><path class="cls-1" d="M61,56v3a2,2,0,0,1-2,2h0a2,2,0,0,1-2-2V56Z"/><polygon class="cls-1" points="59 3 57 8 57 11 61 11 61 8 59 3"/><rect class="cls-2" height="45" width="4" x="57" y="11"/><rect class="cls-3" height="58" width="50" x="3" y="3"/><path class="cls-1" d="M42,58H7a1,1,0,0,1-1-1V37a1,1,0,0,1,2,0V56H42a1,1,0,0,1,0,2Z"/><path class="cls-4" d="M11,50a1,1,0,0,1-.448-1.9l8-4a1,1,0,0,1,.894,0l3.462,1.731,6.51-4.649a1,1,0,0,1,1.2.024l9,7a1,1,0,1,1-1.228,1.578l-8.411-6.542-6.394,4.566a1,1,0,0,1-1.028.082L19,46.118,11.447,49.9A1,1,0,0,1,11,50Z"/><path class="cls-5" d="M33,53a1.042,1.042,0,0,1-.275-.038l-6.7-1.915-5.707,1.9a1,1,0,0,1-.981-.2l-9-8a1,1,0,1,1,1.33-1.494l8.567,7.615,5.452-1.816a1,1,0,0,1,.591-.014l6.3,1.8,5.595-8.393a1,1,0,1,1,1.664,1.11l-6,9A1,1,0,0,1,33,53Z"/><path class="cls-5" d="M49,44H45a1,1,0,0,1,0-2h4a1,1,0,0,1,0,2Z"/><path class="cls-4" d="M49,50H45a1,1,0,0,1,0-2h4a1,1,0,0,1,0,2Z"/><path class="cls-2" d="M7,23a10,10,0,0,0,17.071,7.071L17,23V13A10,10,0,0,0,7,23Z"/><path class="cls-6" d="M17,13V23l7.071-7.071A9.968,9.968,0,0,0,17,13Z"/><path class="cls-4" d="M24.071,15.929,17,23l7.071,7.071a10,10,0,0,0,0-14.142Z"/><rect class="cls-7" height="2" width="4" x="46" y="18"/><rect class="cls-7" height="2" width="10" x="34" y="18"/><rect class="cls-7" height="2" width="6" x="44" y="26"/><rect class="cls-7" height="2" width="8" x="34" y="26"/><rect class="cls-7" height="2" width="10" x="40" y="22"/><rect class="cls-7" height="2" width="4" x="34" y="22"/><path class="cls-6" d="M31,20a1,1,0,0,1-.38-.07,1.461,1.461,0,0,1-.33-.22A.99.99,0,0,1,30,19a1.05,1.05,0,0,1,.29-.71,1.034,1.034,0,0,1,1.42,0A1.05,1.05,0,0,1,32,19a.99.99,0,0,1-1,1Z"/><path class="cls-4" d="M31,24a.99.99,0,0,1-.92-1.38,1.032,1.032,0,0,1,.21-.33,1.047,1.047,0,0,1,1.42,0,1.155,1.155,0,0,1,.21.33A.838.838,0,0,1,32,23a.99.99,0,0,1-1,1Z"/><path class="cls-2" d="M31,28a.99.99,0,0,1-1-1,1,1,0,1,1,2,0,.99.99,0,0,1-1,1Z"/><rect class="cls-7" height="2" width="4" x="34" y="7"/><rect class="cls-7" height="2" width="14" x="18" y="7"/><path class="cls-8" d="M39.823,43.568l-2.11,3.165,1.9,1.478a1,1,0,1,1-1.228,1.578L36.6,48.4l-2.769,4.154A1,1,0,0,1,33,53a1.042,1.042,0,0,1-.275-.038l-5.434-1.553A59.514,59.514,0,0,1,12.866,56H42a1,1,0,0,1,0,2H7a1,1,0,0,1-1-1v-.147q-1.491.1-3,.122V61H53V28.6A60.268,60.268,0,0,1,39.823,43.568ZM49,50H45a1,1,0,0,1,0-2h4a1,1,0,0,1,0,2Zm0-6H45a1,1,0,0,1,0-2h4a1,1,0,0,1,0,2Z"/><path class="cls-8" d="M29.953,50.089l2.62.749,2.445-3.668-.055-.043Q32.537,48.726,29.953,50.089Z"/><path class="cls-9" d="M6,57a1,1,0,0,0,1,1H42a1,1,0,0,0,0-2H12.866A60.284,60.284,0,0,1,6,56.853Z"/><path class="cls-4" d="M35.018,47.17l.091-.137c-.048.032-.1.062-.146.094Z"/><path class="cls-10" d="M38.386,49.789a1,1,0,1,0,1.228-1.578l-1.9-1.478L36.6,48.4Z"/><path class="cls-11" d="M36.692,45.938c-.523.372-1.048.74-1.583,1.095l-.091.137-2.445,3.668-2.62-.749q-1.311.693-2.662,1.32l5.434,1.553A1.042,1.042,0,0,0,33,53a1,1,0,0,0,.832-.445L36.6,48.4l1.112-1.668,2.11-3.165C38.808,44.394,37.761,45.18,36.692,45.938Z"/><path class="cls-11" d="M49,42H45a1,1,0,0,0,0,2h4a1,1,0,0,0,0-2Z"/><path class="cls-10" d="M49,48H45a1,1,0,0,0,0,2h4a1,1,0,0,0,0-2Z"/><path class="cls-9" d="M57,59a2,2,0,0,0,4,0V56.973A4.98,4.98,0,0,1,57,59Z"/><path class="cls-9" d="M60,60.723A1.994,1.994,0,0,0,61,59V56H60Z"/><polygon class="cls-9" points="60 5.5 60 11 61 11 61 8 60 5.5"/><rect class="cls-12" height="45" width="1" x="60" y="11"/><path d="M3,62H53a1,1,0,0,0,1-1V3a1,1,0,0,0-1-1H3A1,1,0,0,0,2,3V61A1,1,0,0,0,3,62ZM4,4H52V60H4Z"/><path d="M59.929,2.629a1,1,0,0,0-1.858,0l-2,5A1,1,0,0,0,56,8V59a3,3,0,0,0,6,0V8a1,1,0,0,0-.071-.371ZM58,12h2V55H58Zm0-3.808,1-2.5,1,2.5V10H58ZM60,59a1,1,0,0,1-2,0V57h2Z"/><path d="M17,34A11,11,0,1,0,6,23,10.931,10.931,0,0,0,17,34Zm7.033-5.382L18.414,23l5.619-5.618a9.006,9.006,0,0,1,0,11.236ZM18,20.586V14.055a8.9,8.9,0,0,1,4.618,1.913Zm-2-6.53V23a1,1,0,0,0,.066.34c.005.013,0,.027.01.04s.026.036.036.056a.973.973,0,0,0,.146.219c.014.016.02.037.035.052l6.325,6.325A9,9,0,1,1,16,14.056Z"/></g></svg>