<?xml version="1.0" ?><svg viewBox="0 0 50 50" xmlns="http://www.w3.org/2000/svg"><defs><style>.a,.c{fill:#fff48c;}.b,.g,.h{fill:none;}.b,.c,.f,.i,.j{stroke:#45413c;}.b,.c,.f,.g,.h,.i,.j{stroke-linecap:round;stroke-linejoin:round;stroke-width:1.25px;}.d{fill:#fffce5;}.e,.f{fill:#fffacf;}.g{stroke:#c0dceb;}.h{stroke:#ff6242;}.i{fill:#f2c100;}.j{fill:#f0f0f0;}</style></defs><title/><path class="a" d="M9.2,14.5,5.541,12.645a1.859,1.859,0,0,0-.436,1.275s-1.157,15.442.713,28.533c.13.9,3.977,2.733,7.725,4.454C9.628,38.008,9,25.082,9.2,14.5Z"/><path class="b" d="M9.2,14.5,5.541,12.645a1.859,1.859,0,0,0-.436,1.275s-1.157,15.442.713,28.533c.13.9,3.977,2.733,7.725,4.454C9.628,38.008,9,25.082,9.2,14.5Z"/><path class="c" d="M41.185,36.725v0h0c-2.763-6.39-4.6-29.177-4.711-29.285L9.2,14.5c-.207,11.237.229,22.825,4.186,32.01l0-.008c.15.349.292.694.456,1.046a1.269,1.269,0,0,0,1.53.664c.522-.162,1.22-.384,2.047-.65l.008,0,.745-.241c15.775-5.11,21.458-6.863,23.506-7.462a.869.869,0,0,0,.5-1.293A14.481,14.481,0,0,1,41.185,36.725Z"/><path class="d" d="M44.661,36.112a1.161,1.161,0,0,0,.333-1.735l-.029-.036c-4.163-5.168-8.71-20.067-8.492-26.9L9.091,14.867c-.743,10.862,3.421,24.551,9.7,33.147a1.275,1.275,0,0,0,1.636.365C25.03,45.9,44.661,36.112,44.661,36.112Z"/><path class="e" d="M37.518,15.714a35.745,35.745,0,0,1-1.045-8.277L9.091,14.867a44.033,44.033,0,0,0,.377,8.975Z"/><path class="f" d="M35.808,6.908,33.253,5.819A1.875,1.875,0,0,0,32.025,5.7l-8.7,2.157-16.8,4.162a1.853,1.853,0,0,0-.981.622l3.55,2.222,27.382-7.43A1.864,1.864,0,0,0,35.808,6.908Z"/><path class="g" d="M15.518,42.728q.679-.309,1.356-.627c5.449-2.564,23.339-10.438,25.777-11.51"/><path class="g" d="M12.366,35.529q.437-.176.87-.358c4.869-2.047,24.648-9.624,26.906-10.488"/><path class="g" d="M10.219,28.05c5.322-1.972,27.5-9.392,27.5-9.392a1.257,1.257,0,0,0,.443-.3"/><path class="h" d="M17.477,12.553c-.542,9.948,2.935,22.133,8.335,30.609q.445.7.861,1.412"/><path class="b" d="M44.661,36.112a1.161,1.161,0,0,0,.333-1.735l-.029-.036c-4.163-5.168-8.71-20.067-8.492-26.9L9.091,14.867c-.743,10.862,3.421,24.551,9.7,33.147a1.275,1.275,0,0,0,1.636.365C25.03,45.9,44.661,36.112,44.661,36.112Z"/><ellipse class="i" cx="14.527" cy="17.537" rx="1.85" ry="2.467"/><ellipse class="i" cx="32.294" cy="12.198" rx="1.85" ry="2.467"/><ellipse class="i" cx="23.878" cy="14.665" rx="1.85" ry="2.467"/><path class="j" d="M28.732,1.5c-2.918.287-4.423,3.276-4.658,6.177l2.293-.568c2.011-5.558,6.594-2.632,6.859.063A3.89,3.89,0,0,1,31.661,10.7a1.084,1.084,0,0,0,1.293,1.739A6.085,6.085,0,0,0,28.732,1.5Z"/><path class="j" d="M20,3.4c-2.918.287-5.09,3.718-5.325,6.619l2.293-.568C17.4,7.931,18.6,6,20.219,5.844a3.7,3.7,0,0,1,4.272,3.225A3.892,3.892,0,0,1,22.926,12.6a1.083,1.083,0,1,0,1.292,1.738A6.085,6.085,0,0,0,20,3.4Z"/><path class="j" d="M17.674,11.692a6.091,6.091,0,0,0-6.65-5.46c-2.9.285-5.212,3.531-5.466,6.413a1.888,1.888,0,0,1,.964-.622l1.527-.378c.545-1.295,1.74-2.939,3.2-3.082A3.778,3.778,0,0,1,15.518,11.9a3.893,3.893,0,0,1-1.565,3.531,1.083,1.083,0,1,0,1.292,1.738A6.121,6.121,0,0,0,17.674,11.692Z"/></svg>